<svg width="47" height="45" viewBox="0 0 47 45" fill="none" xmlns="http://www.w3.org/2000/svg">
<path d="M33.3958 3.75H14.1065C8.77996 3.75 4.46191 7.94733 4.46191 13.125V31.875C4.46191 37.0527 8.77996 41.25 14.1065 41.25H33.3958C38.7224 41.25 43.0405 37.0527 43.0405 31.875V13.125C43.0405 7.94733 38.7224 3.75 33.3958 3.75Z" stroke="white" stroke-width="3" stroke-linecap="round" stroke-linejoin="round"/>
<path d="M31.4669 21.3188C31.7049 22.8792 31.4307 24.4729 30.6833 25.8732C29.9358 27.2734 28.7531 28.4089 27.3035 29.1181C25.8539 29.8274 24.2111 30.0742 22.6088 29.8236C21.0065 29.573 19.5263 28.8377 18.3788 27.7222C17.2312 26.6067 16.4747 25.1679 16.2169 23.6104C15.9591 22.0529 16.213 20.4561 16.9427 19.047C17.6723 17.6379 18.8405 16.4883 20.281 15.7617C21.7215 15.0351 23.361 14.7686 24.9664 15C26.6039 15.236 28.1199 15.9777 29.2904 17.1156C30.461 18.2534 31.224 19.727 31.4669 21.3188Z" stroke="white" stroke-width="3" stroke-linecap="round" stroke-linejoin="round"/>
<path d="M34.3602 12.1875H34.379" stroke="white" stroke-width="3" stroke-linecap="round" stroke-linejoin="round"/>
</svg>
