<svg width="47" height="45" viewBox="0 0 47 45" fill="none" xmlns="http://www.w3.org/2000/svg">
<path d="M31.4669 15C34.5364 15 37.4802 16.1853 39.6506 18.295C41.8211 20.4048 43.0404 23.2663 43.0404 26.25V39.375H35.3247V26.25C35.3247 25.2554 34.9183 24.3016 34.1948 23.5984C33.4713 22.8951 32.49 22.5 31.4669 22.5C30.4437 22.5 29.4624 22.8951 28.739 23.5984C28.0155 24.3016 27.609 25.2554 27.609 26.25V39.375H19.8933V26.25C19.8933 23.2663 21.1127 20.4048 23.2831 18.295C25.4536 16.1853 28.3974 15 31.4669 15V15Z" stroke="white" stroke-width="3" stroke-linecap="round" stroke-linejoin="round"/>
<path d="M12.1776 16.875H4.46191V39.375H12.1776V16.875Z" stroke="white" stroke-width="3" stroke-linecap="round" stroke-linejoin="round"/>
<path d="M8.31977 11.25C10.4504 11.25 12.1776 9.57107 12.1776 7.5C12.1776 5.42893 10.4504 3.75 8.31977 3.75C6.18913 3.75 4.46191 5.42893 4.46191 7.5C4.46191 9.57107 6.18913 11.25 8.31977 11.25Z" stroke="white" stroke-width="3" stroke-linecap="round" stroke-linejoin="round"/>
</svg>
