<svg width="47" height="45" viewBox="0 0 47 45" fill="none" xmlns="http://www.w3.org/2000/svg">
<path d="M17.9644 35.625C8.31977 38.4375 8.31977 30.9375 4.46191 30M31.4669 41.25V33.9937C31.5392 33.0997 31.415 32.2009 31.1024 31.3571C30.7897 30.5133 30.2959 29.7439 29.6537 29.1C35.7105 28.4438 42.076 26.2125 42.076 15.975C42.0755 13.3572 41.0396 10.8397 39.1826 8.94375C40.0619 6.65345 39.9997 4.12191 39.009 1.875C39.009 1.875 36.7329 1.21875 31.4669 4.65C27.0458 3.48529 22.3855 3.48529 17.9644 4.65C12.6984 1.21875 10.4223 1.875 10.4223 1.875C9.43156 4.12191 9.36938 6.65345 10.2487 8.94375C8.37788 10.8538 7.34088 13.394 7.3553 16.0313C7.3553 26.1938 13.7208 28.425 19.7776 29.1563C19.143 29.7937 18.6535 30.5539 18.3411 31.3874C18.0287 32.2208 17.9004 33.1089 17.9644 33.9937V41.25" stroke="white" stroke-width="3" stroke-linecap="round" stroke-linejoin="round"/>
</svg>
